<svg version="1.0"
    xmlns="http://www.w3.org/2000/svg" width="512.000000pt" height="512.000000pt" viewBox="0 0 512.000000 512.000000" preserveAspectRatio="xMidYMid meet">
    <metadata>
        Created by potrace 1.16, written by Peter Selinger 2001-2019
    </metadata>
    <g transform="translate(0.000000,512.000000) scale(0.100000,-0.100000)" fill="#000000" stroke="none">
        <path d="M220 2555 l0 -2345 2346 0 2346 0 -373 380 -372 380 -1604 0 -1603 0
0 1585 0 1585 1603 0 1604 0 372 380 373 380 -2346 0 -2346 0 0 -2345z m4305
2163 c-16 -18 -117 -122 -225 -230 l-195 -198 -1647 0 -1648 0 0 -1735 0
-1735 1648 0 1647 0 190 -192 c105 -106 206 -210 225 -230 l34 -38 -2092 0
-2092 0 0 2195 0 2195 2092 0 2092 0 -29 -32z" />
        <path d="M1680 2555 l0 -885 885 0 885 0 0 885 0 885 -885 0 -885 0 0 -885z
m1620 0 l0 -735 -735 0 -735 0 0 735 0 735 735 0 735 0 0 -735z" />
    </g>
</svg>
