<?xml version="1.0" standalone="no"?>
<!DOCTYPE svg PUBLIC "-//W3C//DTD SVG 20010904//EN"
 "http://www.w3.org/TR/2001/REC-SVG-20010904/DTD/svg10.dtd">
<svg version="1.0" xmlns="http://www.w3.org/2000/svg"
 width="700.000000pt" height="700.000000pt" viewBox="0 0 700.000000 700.000000"
 preserveAspectRatio="xMidYMid meet">
<metadata>
Created by potrace 1.14, written by Peter Selinger 2001-2017
</metadata>
<g transform="translate(0.000000,700.000000) scale(0.100000,-0.100000)"
fill="#000000" stroke="none">
<path d="M0 3500 l0 -3500 3495 0 c1922 0 3495 3 3495 6 0 4 -65 73 -144 153
-80 80 -191 193 -247 251 -56 58 -237 243 -402 412 l-301 308 -2395 2 -2396 3
0 2365 0 2365 2396 3 2396 2 299 306 c164 168 341 350 392 403 52 53 166 169
254 259 l160 162 -3501 0 -3501 0 0 -3500z m6301 3098 c-98 -101 -251 -257
-338 -347 l-160 -163 -2448 0 c-1347 0 -2454 -2 -2459 -4 -8 -3 -11 -779 -9
-2577 0 -1414 1 -2577 2 -2584 1 -8 604 -11 2458 -11 l2456 1 159 -164 c88
-90 241 -246 339 -346 l179 -183 -1690 0 c-2111 0 -2602 0 -3695 0 l-875 0 0
3280 0 3280 3130 0 3130 0 -179 -182z"/>
<path d="M2180 3500 l0 -1320 1320 0 1320 0 0 1320 0 1320 -1320 0 -1320 0 0
-1320z m2417 1097 c7 -7 6 -2187 0 -2194 -7 -7 -2187 -7 -2194 0 -4 4 -7 1991
-4 2169 1 20 7 27 24 30 38 5 2168 0 2174 -5z"/>
</g>
</svg>
